<svg xmlns="http://www.w3.org/2000/svg" viewBox="0 12.819999694824219 256.3999938964844 37.45000076293945" data-asc="0.9931640625" width="256.3999938964844" height="37.45000076293945"><defs/><g fill="#b4beca"><g transform="translate(0, 0)"><path d="M33.94 49.66L21.29 49.66L21.29 47.51L24.15 47.31Q24.66 47.27 24.93 46.92Q25.20 46.58 25.20 46.22L25.20 33.30L8.74 33.30L8.74 46.22Q8.74 46.58 9.00 46.92Q9.25 47.27 9.79 47.31L12.65 47.51L12.65 49.66L0 49.66L0 47.51L2.59 47.31Q3.13 47.27 3.41 46.92Q3.69 46.58 3.69 46.22L3.69 19.56Q3.69 19.19 3.41 18.86Q3.13 18.53 2.59 18.51L0 18.31L0 16.11L12.65 16.11L12.65 18.31L9.79 18.51Q9.25 18.53 9.00 18.86Q8.74 19.19 8.74 19.56L8.74 30.81L25.20 30.81L25.20 19.56Q25.20 19.19 24.93 18.86Q24.66 18.53 24.15 18.51L21.29 18.31L21.29 16.11L33.94 16.11L33.94 18.31L31.35 18.51Q30.81 18.53 30.53 18.86Q30.25 19.19 30.25 19.56L30.25 46.22Q30.25 46.58 30.53 46.92Q30.81 47.27 31.35 47.31L33.94 47.51L33.94 49.66ZM60.16 49.66L52.76 49.66L52.10 46.70Q52.10 46.70 51.35 47.24Q50.61 47.78 49.39 48.49Q48.17 49.19 46.69 49.73Q45.21 50.27 43.75 50.27Q41.04 50.27 39.15 48.46Q37.26 46.66 37.26 43.51Q37.26 42.11 37.76 40.92Q38.26 39.72 39.76 38.64Q41.26 37.55 44.23 36.51Q47.19 35.47 52.10 34.40L52.10 32.25Q52.10 27.32 47.44 27.32Q46.14 27.32 45.20 27.56Q44.26 27.81 43.90 27.95L43.90 32.30L40.26 32.30Q39.58 32.30 38.99 32.04Q38.40 31.79 38.40 30.86Q38.40 28.81 39.97 27.50Q41.53 26.20 43.93 25.57Q46.34 24.95 48.80 24.95Q51.90 24.95 53.61 25.92Q55.32 26.88 56.01 28.58Q56.69 30.27 56.69 32.45L56.69 46.46Q56.69 46.92 56.99 47.22Q57.30 47.51 57.74 47.56L60.16 47.71L60.16 49.66M52.10 44.95L52.10 36.30Q48.73 37.13 46.74 37.98Q44.75 38.82 43.77 39.66Q42.80 40.50 42.49 41.37Q42.19 42.24 42.19 43.16Q42.19 44.70 43.18 46.01Q44.17 47.31 45.95 47.31Q46.95 47.31 48.02 46.96Q49.10 46.61 50.02 46.13Q50.95 45.65 51.53 45.30Q52.10 44.95 52.10 44.95ZM87.04 36.45Q87.04 40.21 85.55 43.20Q84.06 46.19 80.88 47.92Q77.71 49.66 72.68 49.66L65.48 49.66L65.48 16.41L61.69 16.41L61.69 14.75L68.14 12.82L70.14 12.82L70.14 26.81Q71.00 26.39 72.91 25.67Q74.83 24.95 77.03 24.95Q80.32 24.95 82.54 26.54Q84.77 28.13 85.90 30.75Q87.04 33.37 87.04 36.45M81.93 37.45Q81.93 32.71 79.93 30.31Q77.93 27.91 74.29 27.91Q73.46 27.91 72.18 28.17Q70.90 28.44 70.14 28.71L70.14 47.27Q70.14 47.27 71.01 47.29Q71.88 47.31 72.58 47.31Q77.03 47.31 79.48 45.12Q81.93 42.92 81.93 37.45ZM113.35 49.66L105.96 49.66L105.30 46.70Q105.30 46.70 104.55 47.24Q103.81 47.78 102.59 48.49Q101.37 49.19 99.89 49.73Q98.41 50.27 96.95 50.27Q94.24 50.27 92.35 48.46Q90.45 46.66 90.45 43.51Q90.45 42.11 90.95 40.92Q91.46 39.72 92.96 38.64Q94.46 37.55 97.42 36.51Q100.39 35.47 105.30 34.40L105.30 32.25Q105.30 27.32 100.63 27.32Q99.34 27.32 98.40 27.56Q97.46 27.81 97.09 27.95L97.09 32.30L93.46 32.30Q92.77 32.30 92.19 32.04Q91.60 31.79 91.60 30.86Q91.60 28.81 93.16 27.50Q94.73 26.20 97.13 25.57Q99.54 24.95 102.00 24.95Q105.10 24.95 106.81 25.92Q108.52 26.88 109.20 28.58Q109.89 30.27 109.89 32.45L109.89 46.46Q109.89 46.92 110.19 47.22Q110.50 47.51 110.94 47.56L113.35 47.71L113.35 49.66M105.30 44.95L105.30 36.30Q101.93 37.13 99.94 37.98Q97.95 38.82 96.97 39.66Q96.00 40.50 95.69 41.37Q95.39 42.24 95.39 43.16Q95.39 44.70 96.37 46.01Q97.36 47.31 99.15 47.31Q100.15 47.31 101.22 46.96Q102.29 46.61 103.22 46.13Q104.15 45.65 104.72 45.30Q105.30 44.95 105.30 44.95ZM133.23 30.66L131.27 30.66Q130.81 30.10 130.16 29.70Q129.52 29.30 128.59 29.30Q127.39 29.30 126.14 30.13Q124.88 30.96 123.58 32.40L123.58 46.46Q123.58 47.51 124.63 47.56L127.93 47.71L127.93 49.66L115.43 49.66L115.43 47.75L117.90 47.56Q118.33 47.51 118.64 47.22Q118.95 46.92 118.95 46.46L118.95 29.10L115.33 29.10L115.33 27.47L121.53 25.56L123.58 25.56L123.58 30.00Q124.32 29.20 125.42 28.00Q126.51 26.81 127.76 25.88Q129.00 24.95 130.18 24.95Q130.96 24.95 131.86 25.20Q132.76 25.44 133.23 25.71L133.23 30.66ZM161.08 49.66L150.05 49.66L150.05 47.71L152.15 47.56Q152.59 47.51 152.89 47.22Q153.20 46.92 153.20 46.46L153.20 33.45Q153.20 31.08 152.10 29.85Q151.00 28.61 148.39 28.61Q146.97 28.61 145.57 29.02Q144.17 29.42 142.90 30.05L142.90 46.46Q142.90 47.49 143.95 47.56L146.04 47.71L146.04 49.66L134.74 49.66L134.74 47.71L137.18 47.56Q138.23 47.49 138.23 46.46L138.23 29.10L134.74 29.10L134.74 27.47L140.84 25.56L142.90 25.56L142.90 28.05Q145.00 26.86 147.20 25.90Q149.41 24.95 151.15 24.95Q154.42 24.95 156.13 26.99Q157.84 29.03 157.84 32.67L157.84 46.46Q157.84 46.92 158.14 47.22Q158.45 47.51 158.89 47.56L161.08 47.71L161.08 49.66ZM187.57 37.65Q187.57 41.19 186.11 44.06Q184.64 46.92 181.97 48.60Q179.30 50.27 175.63 50.27Q172.00 50.27 169.34 48.61Q166.67 46.95 165.23 44.09Q163.79 41.24 163.79 37.65Q163.79 34.08 165.25 31.20Q166.70 28.32 169.40 26.64Q172.09 24.95 175.78 24.95Q179.52 24.95 182.15 26.66Q184.79 28.37 186.18 31.25Q187.57 34.13 187.57 37.65M182.37 37.60Q182.37 34.86 181.65 32.50Q180.93 30.13 179.46 28.66Q177.98 27.20 175.73 27.20Q173.41 27.20 171.94 28.66Q170.46 30.13 169.75 32.50Q169.04 34.86 169.04 37.60Q169.04 40.31 169.76 42.69Q170.48 45.07 171.96 46.53Q173.44 48.00 175.68 48.00Q177.98 48.00 179.46 46.53Q180.93 45.07 181.65 42.70Q182.37 40.33 182.37 37.60ZM230.69 49.66L219.48 49.66L219.48 47.71L221.58 47.56Q222.63 47.49 222.63 46.46L222.63 33.72Q222.63 31.40 221.67 30.00Q220.70 28.61 218.19 28.61Q216.94 28.61 215.47 29.00Q213.99 29.39 212.84 30.00L212.84 46.46Q212.84 47.49 213.89 47.56L215.99 47.71L215.99 49.66L205.03 49.66L205.03 47.71L207.13 47.56Q208.18 47.49 208.18 46.46L208.18 33.40Q208.18 31.27 207.18 29.94Q206.18 28.61 203.78 28.61Q202.37 28.61 200.83 29.09Q199.29 29.57 198.44 30.05L198.44 46.46Q198.44 47.49 199.49 47.56L201.59 47.71L201.59 49.66L190.28 49.66L190.28 47.71L192.72 47.56Q193.77 47.49 193.77 46.46L193.77 29.10L190.33 29.10L190.33 27.47L196.39 25.56L198.44 25.56L198.44 28.05Q199.56 27.37 200.96 26.66Q202.37 25.95 203.83 25.45Q205.30 24.95 206.59 24.95Q208.76 24.95 210.11 26.06Q211.45 27.17 212.08 28.42Q213.09 27.78 214.62 26.97Q216.16 26.15 217.81 25.55Q219.46 24.95 220.78 24.95Q223.41 24.95 224.80 26.16Q226.20 27.37 226.71 29.14Q227.22 30.91 227.22 32.62L227.22 46.46Q227.22 46.92 227.53 47.22Q227.83 47.51 228.27 47.56L230.69 47.71L230.69 49.66ZM256.40 49.66L249.00 49.66L248.34 46.70Q248.34 46.70 247.60 47.24Q246.85 47.78 245.63 48.49Q244.41 49.19 242.93 49.73Q241.46 50.27 239.99 50.27Q237.28 50.27 235.39 48.46Q233.50 46.66 233.50 43.51Q233.50 42.11 234.00 40.92Q234.50 39.72 236.00 38.64Q237.50 37.55 240.47 36.51Q243.43 35.47 248.34 34.40L248.34 32.25Q248.34 27.32 243.68 27.32Q242.38 27.32 241.44 27.56Q240.50 27.81 240.14 27.95L240.14 32.30L236.50 32.30Q235.82 32.30 235.23 32.04Q234.64 31.79 234.64 30.86Q234.64 28.81 236.21 27.50Q237.77 26.20 240.17 25.57Q242.58 24.95 245.04 24.95Q248.14 24.95 249.85 25.92Q251.56 26.88 252.25 28.58Q252.93 30.27 252.93 32.45L252.93 46.46Q252.93 46.92 253.23 47.22Q253.54 47.51 253.98 47.56L256.40 47.71L256.40 49.66M248.34 44.95L248.34 36.30Q244.97 37.13 242.98 37.98Q240.99 38.82 240.01 39.66Q239.04 40.50 238.73 41.37Q238.43 42.24 238.43 43.16Q238.43 44.70 239.42 46.01Q240.41 47.31 242.19 47.31Q243.19 47.31 244.26 46.96Q245.34 46.61 246.26 46.13Q247.19 45.65 247.77 45.30Q248.34 44.95 248.34 44.95Z"/></g></g></svg>